<?xml version="1.0" encoding="utf-8"?>

<!-- Uploaded to: SVG Repo, www.svgrepo.com, Generator: SVG Repo Mixer Tools -->
<svg fill="#000000" height="800px" width="800px" version="1.1" id="Icons" xmlns="http://www.w3.org/2000/svg" xmlns:xlink="http://www.w3.org/1999/xlink" 
	 viewBox="0 0 32 32" xml:space="preserve">
<g>
	<path d="M21,30c-0.3,0-0.5-0.1-0.7-0.3l-4-4c-0.4-0.4-0.4-1,0-1.4s1-0.4,1.4,0l3.3,3.3l3.3-3.3c0.4-0.4,1-0.4,1.4,0s0.4,1,0,1.4
		l-4,4C21.5,29.9,21.3,30,21,30z"/>
</g>
<g>
	<path d="M21,30c-0.6,0-1-0.4-1-1V7c0-0.6,0.4-1,1-1s1,0.4,1,1v22C22,29.6,21.6,30,21,30z"/>
</g>
<g>
	<path d="M15,8c-0.3,0-0.5-0.1-0.7-0.3L11,4.4L7.7,7.7c-0.4,0.4-1,0.4-1.4,0s-0.4-1,0-1.4l4-4c0.4-0.4,1-0.4,1.4,0l4,4
		c0.4,0.4,0.4,1,0,1.4C15.5,7.9,15.3,8,15,8z"/>
</g>
<g>
	<path d="M11,26c-0.6,0-1-0.4-1-1V3c0-0.6,0.4-1,1-1s1,0.4,1,1v22C12,25.6,11.6,26,11,26z"/>
</g>
</svg>